<svg width="272" height="32" viewBox="0 0 272 32" fill="none" xmlns="http://www.w3.org/2000/svg">
<rect width="32" height="32" rx="3" fill="#282830"/>
<rect x="240" width="32" height="32" rx="3" fill="#282830"/>
<rect x="40.5" y="0.5" width="31" height="31" rx="2.5" fill="#282830" stroke="#8257E6"/>
<rect x="80" width="32" height="32" rx="3" fill="#282830"/>
<rect x="120" width="32" height="32" rx="3" fill="#282830"/>
<rect x="160" width="32" height="32" rx="3" fill="#282830"/>
<rect x="200" width="32" height="32" rx="3" fill="#282830"/>
<path d="M57.6637 9.90909H55.4073L52.1538 11.9993V14.1726L55.2156 12.2166H55.2923V23H57.6637V9.90909Z" fill="#8257E6"/>
<path d="M91.5735 23H100.548V21.0185H94.8462V20.929L97.1026 18.6342C99.6467 16.1925 100.35 15.0036 100.35 13.527C100.35 11.3345 98.5664 9.73011 95.9329 9.73011C93.3377 9.73011 91.4968 11.3409 91.4968 13.8274H93.7532C93.7532 12.4915 94.5969 11.6541 95.9009 11.6541C97.1474 11.6541 98.0742 12.4148 98.0742 13.6484C98.0742 14.7415 97.4094 15.5213 96.1183 16.8317L91.5735 21.2869V23Z" fill="#C4C4C4"/>
<path d="M130.783 23.1406C131.538 23.1406 132.183 22.5142 132.19 21.7344C132.183 20.9673 131.538 20.3409 130.783 20.3409C130.003 20.3409 129.371 20.9673 129.377 21.7344C129.371 22.5142 130.003 23.1406 130.783 23.1406ZM136.004 23.1406C136.758 23.1406 137.404 22.5142 137.41 21.7344C137.404 20.9673 136.758 20.3409 136.004 20.3409C135.224 20.3409 134.591 20.9673 134.598 21.7344C134.591 22.5142 135.224 23.1406 136.004 23.1406ZM141.225 23.1406C141.979 23.1406 142.625 22.5142 142.631 21.7344C142.625 20.9673 141.979 20.3409 141.225 20.3409C140.445 20.3409 139.812 20.9673 139.818 21.7344C139.812 22.5142 140.445 23.1406 141.225 23.1406Z" fill="#C4C4C4"/>
<path d="M252 21L257 16L252 11L253 9L260 16L253 23L252 21Z" fill="#C4C4C4"/>
<path d="M20 11L15 16L20 21L19 23L12 16L19 9L20 11Z" fill="#545454"/>
<path d="M175.872 9.73011C173.034 9.71094 171.148 11.6605 171.148 14.2173C171.155 16.6847 172.913 18.468 175.207 18.468C176.62 18.468 177.847 17.7841 178.48 16.6591H178.57C178.563 19.4588 177.547 21.1271 175.738 21.1271C174.607 21.1271 173.846 20.4751 173.609 19.4332H171.276C171.545 21.6001 173.258 23.179 175.738 23.179C178.876 23.179 180.877 20.5582 180.871 16.0518C180.864 11.2834 178.384 9.7429 175.872 9.73011ZM175.879 11.6477C177.278 11.6477 178.308 12.8111 178.308 14.147C178.314 15.5021 177.234 16.6655 175.853 16.6655C174.46 16.6655 173.456 15.5661 173.45 14.1662C173.45 12.7599 174.491 11.6477 175.879 11.6477Z" fill="#C4C4C4"/>
<path d="M211.661 9.90909H209.404L206.151 11.9993V14.1726L209.213 12.2166H209.289V23H211.661V9.90909ZM219.823 23.2493C222.981 23.2557 224.867 20.7628 224.867 16.4673C224.867 12.1974 222.968 9.73011 219.823 9.73011C216.679 9.73011 214.786 12.1911 214.78 16.4673C214.78 20.7564 216.666 23.2493 219.823 23.2493ZM219.823 21.2486C218.193 21.2486 217.171 19.6122 217.177 16.4673C217.184 13.348 218.2 11.7053 219.823 11.7053C221.453 11.7053 222.47 13.348 222.476 16.4673C222.476 19.6122 221.46 21.2486 219.823 21.2486Z" fill="#C4C4C4"/>
</svg>
